<svg xmlns="http://www.w3.org/2000/svg" xmlns:xlink="http://www.w3.org/1999/xlink" width="56" height="62" viewBox="0 0 56 62">
  <defs>
    <style>
      .cls-1 {
        opacity: 0.7;
        fill: url(#linear-gradient);
      }

      .cls-2 {
        fill: #fff;
      }
    </style>
    <linearGradient id="linear-gradient" x1="0.5" x2="0.5" y2="1" gradientUnits="objectBoundingBox">
      <stop offset="0" stop-color="#374757"/>
      <stop offset="1" stop-color="#7594af"/>
    </linearGradient>
  </defs>
  <g id="_005-paper" data-name="005-paper" transform="translate(-4 -1)">
    <path id="Path_97" data-name="Path 97" class="cls-1" d="M57,31H31a3,3,0,0,0-3,3V60a3,3,0,0,0,3,3H57a3,3,0,0,0,3-3V34A3,3,0,0,0,57,31ZM51.8,41.6l-9,12a1,1,0,0,1-1.507.107l-6-6a1,1,0,1,1,1.414-1.414l5.185,5.185L50.2,40.4a1,1,0,1,1,1.6,1.2Z"/>
    <path id="Path_98" data-name="Path 98" class="cls-2" d="M39,51a3,3,0,0,0,3-3V14a4.1,4.1,0,0,0-.1-.447l-6-12A1.047,1.047,0,0,0,35,1H7A3,3,0,0,0,4,4V48a3,3,0,0,0,3,3ZM33.684,6.868,35,4.236l3.421,6.843-4.4-2.932a1,1,0,0,1-.337-1.279ZM6,48V4A1,1,0,0,1,7,3H33.382L31.9,5.974a3,3,0,0,0,1.02,3.838L40,14.535V48a1,1,0,0,1-1,1H7A1,1,0,0,1,6,48Z"/>
    <path id="Path_99" data-name="Path 99" class="cls-2" d="M13,23a1,1,0,0,1,1-1H32a1,1,0,0,1,0,2H14A1,1,0,0,1,13,23Zm0,6a1,1,0,0,1,1-1H32a1,1,0,0,1,0,2H14A1,1,0,0,1,13,29Zm0,6a1,1,0,0,1,1-1H32a1,1,0,0,1,0,2H14A1,1,0,0,1,13,35Zm0,6a1,1,0,0,1,1-1H32a1,1,0,0,1,0,2H14A1,1,0,0,1,13,41Z"/>
    <path id="Path_100" data-name="Path 100" class="cls-2" d="M13,11a1,1,0,0,1,1-1h9a1,1,0,0,1,0,2H14A1,1,0,0,1,13,11Zm0,4a1,1,0,0,1,1-1h9a1,1,0,0,1,0,2H14A1,1,0,0,1,13,15Z"/>
  </g>
</svg>
