<svg id="cloud" xmlns="http://www.w3.org/2000/svg" xmlns:xlink="http://www.w3.org/1999/xlink" width="86.829" height="73.704" viewBox="0 0 86.829 73.704">
  <defs>
    <style>
      .cls-1 {
        fill: url(#linear-gradient);
      }

      .cls-2 {
        fill: #fff;
      }

      .cls-3 {
        fill: #1896de;
      }
    </style>
    <linearGradient id="linear-gradient" x1="0.5" x2="0.5" y2="1" gradientUnits="objectBoundingBox">
      <stop offset="0" stop-color="#374757"/>
      <stop offset="1" stop-color="#7594af"/>
    </linearGradient>
  </defs>
  <g id="Group_223" data-name="Group 223" transform="translate(25.599 13.867)">
    <path id="Path_120" data-name="Path 120" class="cls-1" d="M73.271,63.59H25.958A6.958,6.958,0,0,1,19,56.633V52.458A6.958,6.958,0,0,1,25.958,45.5H73.271a6.958,6.958,0,0,1,6.958,6.958v4.175A6.958,6.958,0,0,1,73.271,63.59ZM71.88,53.849a1.392,1.392,0,0,0-1.392-1.392H66.314a1.392,1.392,0,1,0,0,2.783h4.175A1.392,1.392,0,0,0,71.88,53.849Zm-9.741,0a1.392,1.392,0,0,0-1.392-1.392H56.573a1.392,1.392,0,1,0,0,2.783h4.175A1.392,1.392,0,0,0,62.139,53.849Z" transform="translate(-19 -3.753)"/>
    <path id="Path_121" data-name="Path 121" class="cls-1" d="M73.271,48.59H25.958A6.958,6.958,0,0,1,19,41.633V37.458A6.958,6.958,0,0,1,25.958,30.5H73.271a6.958,6.958,0,0,1,6.958,6.958v4.175a6.958,6.958,0,0,1-6.958,6.958ZM71.88,38.849a1.392,1.392,0,0,0-1.392-1.392H66.314a1.392,1.392,0,1,0,0,2.783h4.175A1.392,1.392,0,0,0,71.88,38.849Zm-9.741,0a1.392,1.392,0,0,0-1.392-1.392H56.573a1.392,1.392,0,1,0,0,2.783h4.175A1.392,1.392,0,0,0,62.139,38.849Z" transform="translate(-19 -9.626)"/>
    <path id="Path_122" data-name="Path 122" class="cls-1" d="M73.271,33.59H25.958A6.958,6.958,0,0,1,19,26.633V22.458A6.958,6.958,0,0,1,25.958,15.5H73.271a6.958,6.958,0,0,1,6.958,6.958v4.175A6.958,6.958,0,0,1,73.271,33.59ZM71.88,23.849a1.392,1.392,0,0,0-1.392-1.392H66.314a1.392,1.392,0,1,0,0,2.783h4.175A1.392,1.392,0,0,0,71.88,23.849Zm-9.741,0a1.392,1.392,0,0,0-1.392-1.392H56.573a1.392,1.392,0,1,0,0,2.783h4.175A1.392,1.392,0,0,0,62.139,23.849Z" transform="translate(-19 -15.5)"/>
  </g>
  <path id="Path_123" data-name="Path 123" class="cls-2" d="M58.21,26.749V25.664a20.178,20.178,0,0,0-40.05-3.451,18.1,18.1,0,1,0,1.085,36.181H54.731A15.989,15.989,0,0,0,58.21,26.749ZM38.728,23.577a1.392,1.392,0,1,1,1.392-1.392A1.392,1.392,0,0,1,38.728,23.577Zm16,32.006H49.86V45.146l3.368-2.783a4.13,4.13,0,1,0-1.976-3.479,4.077,4.077,0,0,0,.25,1.392l-3.9,3.117a1.392,1.392,0,0,0-.529,1.085V55.611H40.119v-29.5a4.175,4.175,0,1,0-2.783,0V55.583H28.987V47.233a1.392,1.392,0,0,0-.515-1.085l-3.91-3.117a4.077,4.077,0,0,0,.25-1.392,4.273,4.273,0,1,0-1.976,3.507L26.2,47.929v7.654H19.246a15.307,15.307,0,1,1,0-30.615h.167A1.392,1.392,0,0,0,20.8,23.73a17.395,17.395,0,0,1,34.622,1.934,16.352,16.352,0,0,1-.139,2.073,1.392,1.392,0,0,0,1.2,1.531,13.22,13.22,0,0,1-1.753,26.315Zm-.7-16.7a1.392,1.392,0,1,1,1.392,1.392A1.392,1.392,0,0,1,54.035,38.884Zm-33.4,4.175a1.392,1.392,0,1,1,1.392-1.392A1.392,1.392,0,0,1,20.637,43.059Z" transform="translate(-0.604 -5.535)"/>
  <path id="Path_124" data-name="Path 124" class="cls-3" d="M29.175,20.07a1.392,1.392,0,1,1,1.392-1.392A1.392,1.392,0,0,1,29.175,20.07ZM30.566,52.1V22.6a4.175,4.175,0,1,0-2.783,0V52.076c-.043-.049,2.787-.029,2.783,0C30.564,52.083,30.831,51.664,30.566,52.1Z" transform="translate(8.949 -2.028)"/>
</svg>
