<svg id="_001-modem" data-name="001-modem" xmlns="http://www.w3.org/2000/svg" xmlns:xlink="http://www.w3.org/1999/xlink" width="86.237" height="86.279" viewBox="0 0 86.237 86.279">
  <defs>
    <style>
      .cls-1 {
        fill: url(#linear-gradient);
      }

      .cls-2 {
        fill: #fff;
      }

      .cls-3 {
        fill: #1896de;
      }

      .cls-4 {
        fill: none;
        stroke: #fff;
        stroke-linecap: round;
        stroke-width: 3px;
      }
    </style>
    <linearGradient id="linear-gradient" x1="0.5" x2="0.5" y2="1" gradientUnits="objectBoundingBox">
      <stop offset="0" stop-color="#374757"/>
      <stop offset="1" stop-color="#7594af"/>
    </linearGradient>
  </defs>
  <path id="Union_4" data-name="Union 4" class="cls-1" d="M29.224,58.4A29.225,29.225,0,0,1,.878,36.131H16.366a1.394,1.394,0,0,1,1.252.766l4.022,8.057a4.172,4.172,0,0,0,3.744,2.312h3.84a1.392,1.392,0,0,1,1.391,1.391V58.4ZM33.4,48.655a4.175,4.175,0,0,0-4.175-4.174h-3.84a1.393,1.393,0,0,1-1.254-.765L20.11,35.659a4.174,4.174,0,0,0-3.744-2.311H.335A29.59,29.59,0,0,1,0,29.174,29.223,29.223,0,0,1,50.125,8.8L45.311,21.325a1.4,1.4,0,0,1-1.295.891H37.574A4.174,4.174,0,0,0,33.4,26.391v6.622a4.173,4.173,0,0,0,2.31,3.744l9,4.495a4.167,4.167,0,0,0,1.865.447h9A29.223,29.223,0,0,1,33.4,58.062Zm13.137-9.741a1.4,1.4,0,0,1-.613-.153l-8.975-4.494a1.4,1.4,0,0,1-.766-1.255V26.391A1.392,1.392,0,0,1,37.574,25h6.442a4.172,4.172,0,0,0,3.9-2.67l4.244-11.162a28.9,28.9,0,0,1,4.537,27.748Z" transform="translate(27.831 27.881)"/>
  <g id="Group_221" data-name="Group 221" transform="translate(0 0)">
    <path id="Path_112" data-name="Path 112" class="cls-2" d="M66.4,1a4.175,4.175,0,0,0-4.175,4.175V39.964H59.446V5.175A4.175,4.175,0,0,0,55.271,1H5.175A4.175,4.175,0,0,0,1,5.175v50.1a4.175,4.175,0,0,0,4.175,4.175h50.1a4.175,4.175,0,0,0,4.175-4.175V48.314H66.4a4.175,4.175,0,0,0,4.175-4.175V5.175A4.175,4.175,0,0,0,66.4,1ZM56.663,55.271a1.392,1.392,0,0,1-1.392,1.392H5.175a1.392,1.392,0,0,1-1.392-1.392V5.175A1.392,1.392,0,0,1,5.175,3.783h50.1a1.392,1.392,0,0,1,1.392,1.392ZM67.8,44.139A1.392,1.392,0,0,1,66.4,45.53H59.446V42.747h4.175a1.392,1.392,0,0,0,1.392-1.392V5.175a1.392,1.392,0,0,1,2.783,0Z" transform="translate(-1 -1)"/>
    <path id="Path_113" data-name="Path 113" class="cls-3" d="M27.631,10A27.637,27.637,0,0,0,7.954,18.155a1.392,1.392,0,0,0,1.962,1.962,25.048,25.048,0,0,1,35.43,0,1.392,1.392,0,1,0,1.962-1.962A27.637,27.637,0,0,0,27.631,10Z" transform="translate(1.592 2.524)"/>
    <path id="Path_114" data-name="Path 114" class="cls-3" d="M26.27,15a20.734,20.734,0,0,0-14.765,6.1,1.4,1.4,0,1,0,1.976,1.976,18.09,18.09,0,0,1,25.577,0A1.4,1.4,0,1,0,41.034,21.1,20.734,20.734,0,0,0,26.27,15Z" transform="translate(2.953 4.482)"/>
    <path id="Path_115" data-name="Path 115" class="cls-3" d="M24.863,20a13.791,13.791,0,0,0-9.838,4.077,1.392,1.392,0,0,0,1.962,1.962,11.133,11.133,0,0,1,15.753,0A1.392,1.392,0,0,0,34.7,24.077,13.791,13.791,0,0,0,24.863,20Z" transform="translate(4.361 6.44)"/>
    <path id="Path_116" data-name="Path 116" class="cls-3" d="M23.762,25a6.262,6.262,0,1,0,6.262,6.262A6.262,6.262,0,0,0,23.762,25Zm0,9.741a3.479,3.479,0,1,1,3.479-3.479A3.479,3.479,0,0,1,23.762,34.741Z" transform="translate(5.461 8.398)"/>
    <line id="Line_42" data-name="Line 42" class="cls-4" y1="35" x2="35" transform="translate(11.5 12.913)"/>
  </g>
</svg>
