<svg xmlns="http://www.w3.org/2000/svg" xmlns:xlink="http://www.w3.org/1999/xlink" width="62" height="62" viewBox="0 0 62 62">
  <defs>
    <style>
      .cls-1 {
        fill: url(#linear-gradient);
      }

      .cls-2 {
        fill: #fff;
      }
    </style>
    <linearGradient id="linear-gradient" x1="0.5" x2="0.5" y2="1" gradientUnits="objectBoundingBox">
      <stop offset="0" stop-color="#374757"/>
      <stop offset="1" stop-color="#7594af"/>
    </linearGradient>
  </defs>
  <g id="location" transform="translate(-1 -1)">
    <g id="Group_909" data-name="Group 909">
      <path id="Path_1076" data-name="Path 1076" class="cls-1" d="M35.688,62.912c.443.042.889.07,1.337.088V50.051a22.845,22.845,0,0,0-8.157,1.881c1.569,5.456,4.011,9.506,6.82,10.98Z"/>
      <path id="Path_1077" data-name="Path 1077" class="cls-1" d="M49.034,52.837A25.249,25.249,0,0,1,44.29,62.23,24.95,24.95,0,0,0,54.4,56.893a23.112,23.112,0,0,0-5.366-4.056Z"/>
      <path id="Path_1078" data-name="Path 1078" class="cls-1" d="M21.652,56.893A24.944,24.944,0,0,0,31.761,62.23a25.265,25.265,0,0,1-4.745-9.393,23.128,23.128,0,0,0-5.364,4.056Z"/>
      <path id="Path_1079" data-name="Path 1079" class="cls-1" d="M39.025,63c.449-.018.9-.046,1.338-.088,2.809-1.474,5.251-5.524,6.82-10.98a22.845,22.845,0,0,0-8.158-1.881Z"/>
      <path id="Path_1080" data-name="Path 1080" class="cls-1" d="M26.772,24.073a26.117,26.117,0,0,1,4.989-10.252,24.969,24.969,0,0,0-10.627,5.793,23.109,23.109,0,0,0,5.638,4.459Z"/>
      <path id="Path_1081" data-name="Path 1081" class="cls-1" d="M37.025,13.051c-.448.018-.894.046-1.337.087-2.96,1.554-5.514,5.966-7.066,11.869A22.826,22.826,0,0,0,37.025,27Z"/>
      <path id="Path_1082" data-name="Path 1082" class="cls-1" d="M37.025,37.025V29a24.825,24.825,0,0,1-8.874-2.011,52.836,52.836,0,0,0-1.114,10.036Z"/>
      <path id="Path_1083" data-name="Path 1083" class="cls-1" d="M37.025,48.051V39.025H27.037a52.191,52.191,0,0,0,1.318,10.948,24.818,24.818,0,0,1,8.67-1.922Z"/>
      <path id="Path_1084" data-name="Path 1084" class="cls-1" d="M54.917,19.614A24.975,24.975,0,0,0,44.29,13.821a26.117,26.117,0,0,1,4.989,10.252,23.109,23.109,0,0,0,5.638-4.459Z"/>
      <path id="Path_1085" data-name="Path 1085" class="cls-1" d="M39.025,39.025v9.026A24.819,24.819,0,0,1,47.7,49.973a52.19,52.19,0,0,0,1.318-10.948Z"/>
      <path id="Path_1086" data-name="Path 1086" class="cls-1" d="M49.779,26.082a54.773,54.773,0,0,1,1.235,10.943H63a24.9,24.9,0,0,0-6.667-16,25.121,25.121,0,0,1-6.554,5.057Z"/>
      <path id="Path_1087" data-name="Path 1087" class="cls-1" d="M26.482,50.861a53.922,53.922,0,0,1-1.445-11.836H13.051a24.917,24.917,0,0,0,7.143,16.5,25.127,25.127,0,0,1,6.288-4.664Z"/>
      <path id="Path_1088" data-name="Path 1088" class="cls-1" d="M51.014,39.025a53.86,53.86,0,0,1-1.446,11.836,25.109,25.109,0,0,1,6.288,4.664A24.913,24.913,0,0,0,63,39.025Z"/>
      <path id="Path_1089" data-name="Path 1089" class="cls-1" d="M25.037,37.025a54.7,54.7,0,0,1,1.235-10.943,25.121,25.121,0,0,1-6.554-5.057,24.9,24.9,0,0,0-6.667,16Z"/>
      <path id="Path_1090" data-name="Path 1090" class="cls-1" d="M39.025,29v8.025h9.989A52.836,52.836,0,0,0,47.9,26.989,24.825,24.825,0,0,1,39.025,29Z"/>
      <path id="Path_1091" data-name="Path 1091" class="cls-1" d="M40.363,13.138c-.443-.041-.889-.069-1.338-.087V27a22.831,22.831,0,0,0,8.4-1.993c-1.549-5.907-4.1-10.315-7.062-11.869Z"/>
    </g>
    <path id="Path_1092" data-name="Path 1092" class="cls-2" d="M17.293,50.707C16.627,50.042,1,34.228,1,18a17,17,0,1,1,34,0c0,16.228-15.627,32.042-16.293,32.707a1,1,0,0,1-1.414,0ZM18,3A15.017,15.017,0,0,0,3,18C3,31.5,14.938,45.247,18,48.549,21.061,45.244,33,31.488,33,18A15.017,15.017,0,0,0,18,3Z"/>
    <path id="Path_1093" data-name="Path 1093" class="cls-2" d="M7,19a1,1,0,0,1-1-1A12.013,12.013,0,0,1,18,6a1,1,0,0,1,0,2A10.011,10.011,0,0,0,8,18a1,1,0,0,1-1,1Z"/>
    <path id="Path_1094" data-name="Path 1094" class="cls-2" d="M18,25a7,7,0,1,1,7-7A7,7,0,0,1,18,25Zm0-12a5,5,0,1,0,5,5,5,5,0,0,0-5-5Z"/>
  </g>
</svg>
