<svg xmlns="http://www.w3.org/2000/svg" xmlns:xlink="http://www.w3.org/1999/xlink" width="62" height="62" viewBox="0 0 62 62">
  <defs>
    <style>
      .cls-1 {
        fill: url(#linear-gradient);
      }

      .cls-2 {
        fill: #fff;
      }
    </style>
    <linearGradient id="linear-gradient" x1="0.5" x2="0.5" y2="1" gradientUnits="objectBoundingBox">
      <stop offset="0" stop-color="#374757"/>
      <stop offset="1" stop-color="#7594af"/>
    </linearGradient>
  </defs>
  <g id="phone" transform="translate(-1 -1)">
    <path id="Path_1072" data-name="Path 1072" class="cls-1" d="M60,25H22.414A2,2,0,0,0,21,28.414l4,4V60a3,3,0,0,0,3,3H60a3,3,0,0,0,3-3V28a3,3,0,0,0-3-3Zm0,32a3,3,0,0,1-3,3H31a3,3,0,0,1-3-3V31a3,3,0,0,1,3-3H57a3,3,0,0,1,3,3ZM57,30H31a1,1,0,0,0-1,1V57a1,1,0,0,0,1,1H57a1,1,0,0,0,1-1V31A1,1,0,0,0,57,30ZM45,53a1,1,0,0,1-2,0V52a1,1,0,0,1,2,0Zm0-6a1,1,0,0,1-2,0V35a1,1,0,0,1,2,0Z"/>
    <path id="Path_1073" data-name="Path 1073" class="cls-2" d="M50,31a5.006,5.006,0,0,1-5-5V6.5a5.5,5.5,0,1,0-11,0V44a5.006,5.006,0,0,1-5,5H20.816A2.966,2.966,0,0,0,21,48V37a3,3,0,0,0-3-3H13a1,1,0,0,1-1-1V19a1,1,0,0,1,1-1h5a3,3,0,0,0,3-3V4a3,3,0,0,0-3-3H10a9.01,9.01,0,0,0-9,9V42a9.01,9.01,0,0,0,9,9H29a7.008,7.008,0,0,0,7-7V6.5a3.5,3.5,0,0,1,7,0V26a7.008,7.008,0,0,0,7,7,1,1,0,0,0,0-2ZM19,37V48a1,1,0,0,1-1,1H16V36h2A1,1,0,0,1,19,37ZM19,4V15a1,1,0,0,1-1,1H16V3h2A1,1,0,0,1,19,4ZM3,42V10a7.008,7.008,0,0,1,7-7h4V16H13a3,3,0,0,0-3,3V33a3,3,0,0,0,3,3h1V49H10a7.008,7.008,0,0,1-7-7Z"/>
  </g>
</svg>
