<svg xmlns="http://www.w3.org/2000/svg" xmlns:xlink="http://www.w3.org/1999/xlink" width="60" height="62.002" viewBox="0 0 60 62.002">
  <defs>
    <style>
      .cls-1 {
        opacity: 0.7;
        fill: url(#linear-gradient);
      }

      .cls-2 {
        fill: #fff;
      }
    </style>
    <linearGradient id="linear-gradient" x1="0.5" x2="0.5" y2="1" gradientUnits="objectBoundingBox">
      <stop offset="0" stop-color="#374757"/>
      <stop offset="1" stop-color="#7594af"/>
    </linearGradient>
  </defs>
  <g id="_003-microphone" data-name="003-microphone" transform="translate(-2 -0.998)">
    <path id="Path_89" data-name="Path 89" class="cls-1" d="M59,63H27a3,3,0,0,1-3-3V32.414l-4-4A2,2,0,0,1,21.414,25H59a3,3,0,0,1,3,3V60a3,3,0,0,1-3,3ZM53,35a1,1,0,0,0-1-1H34a1,1,0,0,0,0,2H52A1,1,0,0,0,53,35Zm0,9a1,1,0,0,0-1-1H34a1,1,0,0,0,0,2H52A1,1,0,0,0,53,44Zm0,9a1,1,0,0,0-1-1H34a1,1,0,0,0,0,2H52A1,1,0,0,0,53,53Z"/>
    <g id="Group_192" data-name="Group 192">
      <path id="Path_90" data-name="Path 90" class="cls-2" d="M40,26a1,1,0,0,0-2,0A17,17,0,0,1,4,26a1,1,0,1,0-2,0A19.007,19.007,0,0,0,20,44.949V49H12a1,1,0,0,0,0,2H30a1,1,0,1,0,0-2H22V44.949A19.007,19.007,0,0,0,40,26Z"/>
      <path id="Path_91" data-name="Path 91" class="cls-2" d="M49,1H32a3,3,0,0,0-2.98,2.8A12.969,12.969,0,0,0,8,14V26a13,13,0,0,0,26,0V21H49a3,3,0,0,0,3-3V4A3,3,0,0,0,49,1ZM32,25H27a1,1,0,0,0,0,2h4.949a10.994,10.994,0,0,1-21.9,0H15a1,1,0,0,0,0-2H10V21h5a1,1,0,0,0,0-2H10V15h5a1,1,0,0,0,0-2H10.051A10.97,10.97,0,0,1,29,6.487V13H27a1,1,0,0,0,0,2h2v1.586l-2.707,2.707A1,1,0,0,0,27,21h5Zm18-7a1,1,0,0,1-1,1H29.414l1.293-1.293A1,1,0,0,0,31,17V4a1,1,0,0,1,1-1H49a1,1,0,0,1,1,1Z"/>
      <path id="Path_92" data-name="Path 92" class="cls-2" d="M45,7H36a1,1,0,0,0,0,2h9a1,1,0,0,0,0-2Z"/>
      <path id="Path_93" data-name="Path 93" class="cls-2" d="M45,13H36a1,1,0,0,0,0,2h9a1,1,0,0,0,0-2Z"/>
    </g>
  </g>
</svg>
