<svg xmlns="http://www.w3.org/2000/svg" xmlns:xlink="http://www.w3.org/1999/xlink" width="57" height="62" viewBox="0 0 57 62">
  <defs>
    <style>
      .cls-1 {
        opacity: 0.3;
      }

      .cls-2 {
        fill: url(#linear-gradient);
      }

      .cls-3 {
        fill: #1d2731;
      }

      .cls-4 {
        fill: #121a21;
      }
    </style>
    <linearGradient id="linear-gradient" x1="0.5" x2="0.5" y2="1" gradientUnits="objectBoundingBox">
      <stop offset="0" stop-color="#374757"/>
      <stop offset="1" stop-color="#7594af"/>
    </linearGradient>
  </defs>
  <g id="Line" transform="translate(-1.5 -1)">
    <g id="Group_1322" data-name="Group 1322" class="cls-1" transform="translate(-4.5)">
      <path id="Path_1677" data-name="Path 1677" class="cls-2" d="M26,21a1,1,0,0,0-1,1v8a1,1,0,0,0,1,1A27.03,27.03,0,0,1,53,58a1,1,0,0,0,1,1h8a1,1,0,0,0,1-1A37.042,37.042,0,0,0,26,21Z"/>
      <path id="Path_1678" data-name="Path 1678" class="cls-2" d="M26,37a1,1,0,0,0-1,1v8a1,1,0,0,0,1,1A11.013,11.013,0,0,1,37,58a1,1,0,0,0,1,1h8a1,1,0,0,0,1-1A21.024,21.024,0,0,0,26,37Z"/>
      <circle id="Ellipse_93" data-name="Ellipse 93" class="cls-2" cx="5" cy="5" r="5" transform="translate(21 53)"/>
    </g>
    <path id="Path_1676" data-name="Path 1676" class="cls-3" d="M4.5,53h26a3,3,0,0,0,3-3V33h9a3,3,0,0,0,3-3V16a3,3,0,0,0-3-3h-9V4a3,3,0,0,0-3-3H4.5a3,3,0,0,0-3,3V50a3,3,0,0,0,3,3Zm26-2H4.5a1,1,0,0,1-1-1V47h28v3A1,1,0,0,1,30.5,51Zm13-35V30a1,1,0,0,1-1,1h-26a1,1,0,0,1-1-1V16a1,1,0,0,1,1-1h26A1,1,0,0,1,43.5,16Zm-27-3a3,3,0,0,0-3,3V30a3,3,0,0,0,3,3h15V45H3.5V9h28v4ZM4.5,3h26a1,1,0,0,1,1,1V7H3.5V4A1,1,0,0,1,4.5,3Z"/>
    <path id="Path_1679" data-name="Path 1679" class="cls-4" d="M25.5,19h-4a2,2,0,0,0-2,2v4a2,2,0,0,0,2,2h4a2,2,0,0,0,2-2V21A2,2,0,0,0,25.5,19Zm-4,6V21h4v4Zm9-6h8a1,1,0,0,1,0,2h-8a1,1,0,0,1,0-2Zm9,5a1,1,0,0,1-1,1h-8a1,1,0,0,1,0-2h8A1,1,0,0,1,39.5,24Z"/>
  </g>
</svg>
