<svg xmlns="http://www.w3.org/2000/svg" xmlns:xlink="http://www.w3.org/1999/xlink" width="62" height="62" viewBox="0 0 62 62">
  <defs>
    <style>
      .cls-1 {
        fill: url(#linear-gradient);
      }

      .cls-2 {
        fill: #fff;
      }
    </style>
    <linearGradient id="linear-gradient" x1="0.5" x2="0.5" y2="1" gradientUnits="objectBoundingBox">
      <stop offset="0" stop-color="#374757"/>
      <stop offset="1" stop-color="#7594af"/>
    </linearGradient>
  </defs>
  <g id="email" transform="translate(-1 -1)">
    <path id="Path_1074" data-name="Path 1074" class="cls-1" d="M46,41a5,5,0,1,1-5-5,5,5,0,0,1,5,5Zm17,0A22,22,0,1,1,41,19,22,22,0,0,1,63,41Zm-6,0a16,16,0,1,0-4.687,11.313A1,1,0,0,0,50.9,50.9,14,14,0,1,1,55,40.84c-.022.13-.009.094-.013,1.667a3.493,3.493,0,1,1-6.986,0V41a7.026,7.026,0,1,0-1.344,4.107,5.492,5.492,0,0,0,10.33-2.6C56.987,42.393,57,41.118,57,41Z"/>
    <path id="Path_1075" data-name="Path 1075" class="cls-2" d="M50.707,19.293,45,13.586V4a3,3,0,0,0-3-3H10A3,3,0,0,0,7,4v9.586L1.293,19.293A1.11,1.11,0,0,0,1,20V48a3,3,0,0,0,3,3H48a3,3,0,0,0,3-3V20a1.119,1.119,0,0,0-.293-.707Zm-2.229.6L45,22.5V16.414ZM9,4a1,1,0,0,1,1-1H42a1,1,0,0,1,1,1V24L26.6,36.3a1.007,1.007,0,0,1-1.2,0L9,24ZM7,22.5,3.522,19.892,7,16.414ZM49,48a1,1,0,0,1-1,1H4a1,1,0,0,1-1-1V22L24.2,37.9a3.011,3.011,0,0,0,3.6,0L49,22ZM19,8a1,1,0,0,1,1-1H32a1,1,0,0,1,0,2H20A1,1,0,0,1,19,8Zm-6,6a1,1,0,0,1,1-1H38a1,1,0,0,1,0,2H14A1,1,0,0,1,13,14Zm0,6a1,1,0,0,1,1-1H38a1,1,0,0,1,0,2H14A1,1,0,0,1,13,20Z"/>
  </g>
</svg>
