<svg xmlns="http://www.w3.org/2000/svg" xmlns:xlink="http://www.w3.org/1999/xlink" width="79.741" height="86.247" viewBox="0 0 79.741 86.247">
  <defs>
    <style>
      .cls-1 {
        fill: url(#linear-gradient);
      }

      .cls-2 {
        fill: #fff;
      }

      .cls-3 {
        fill: #1896de;
      }
    </style>
    <linearGradient id="linear-gradient" x1="0.5" x2="0.5" y2="1" gradientUnits="objectBoundingBox">
      <stop offset="0" stop-color="#374757"/>
      <stop offset="1" stop-color="#7594af"/>
    </linearGradient>
  </defs>
  <g id="privacy" transform="translate(0 0)">
    <path id="Path_117" data-name="Path 117" class="cls-1" d="M79.482,61.278A6.958,6.958,0,0,0,67.9,57.643l-.111.1-3.475,3.187V35.083a7.073,7.073,0,0,0-5.538-7.026,7,7,0,0,0-5.594,1.252V20.96A6.959,6.959,0,0,0,44.8,14.141a7.073,7.073,0,0,0-5.538,7.026v2.576a7,7,0,0,0-5.594-1.252,7.073,7.073,0,0,0-5.538,7.026v5.359A6.955,6.955,0,0,0,17,40.649V75.231a6.966,6.966,0,0,0,6.958,6.958H61.2a5.62,5.62,0,0,0,3.952-1.652L77.395,67.81A6.932,6.932,0,0,0,79.482,61.278Z" transform="translate(0.109 4.058)"/>
    <g id="Group_222" data-name="Group 222" transform="translate(0 0)">
      <path id="Path_118" data-name="Path 118" class="cls-2" d="M63.588,13.376A1.392,1.392,0,0,0,62.2,12.124c-23.337,0-26.44-9.915-26.484-10.093a1.412,1.412,0,0,0-1.456-1.009,1.53,1.53,0,0,0-1.3,1.009c-.022.1-3.05,10.093-26.48,10.093a1.392,1.392,0,0,0-1.392,1.252c-.139,1.373-3.2,33.806,10.787,49.262,9.417,10.4,27.2,10.742,36.924,0,14-15.456,10.931-47.888,10.794-49.262Zm-12.855,47.4a22.66,22.66,0,0,1-32.038.751q-.384-.367-.751-.751C6.257,47.868,7.342,20.99,7.76,14.9c17.513-.269,24.154-6.049,26.579-9.552,2.426,3.5,9.066,9.28,26.579,9.552C61.335,20.99,62.421,47.868,50.733,60.776Z" transform="translate(-4.705 -1.022)"/>
      <path id="Path_119" data-name="Path 119" class="cls-3" d="M48.8,17.4,27.519,38.684,17.371,28.535A1.392,1.392,0,0,0,15.4,30.5L26.535,41.636a1.393,1.393,0,0,0,1.968,0L50.768,19.371A1.392,1.392,0,0,0,48.8,17.4Z" transform="translate(-0.669 5.239)"/>
    </g>
  </g>
</svg>
