<svg id="_003-cloud" data-name="003-cloud" xmlns="http://www.w3.org/2000/svg" xmlns:xlink="http://www.w3.org/1999/xlink" width="72.586" height="61.615" viewBox="0 0 72.586 61.615">
  <defs>
    <style>
      .cls-1 {
        opacity: 0.3;
      }

      .cls-2 {
        fill: url(#linear-gradient);
      }

      .cls-3 {
        fill: #1d2731;
      }
    </style>
    <linearGradient id="linear-gradient" x1="0.5" x2="0.5" y2="1" gradientUnits="objectBoundingBox">
      <stop offset="0" stop-color="#374757"/>
      <stop offset="1" stop-color="#7594af"/>
    </linearGradient>
  </defs>
  <g id="Group_223" data-name="Group 223" class="cls-1" transform="translate(21.4 11.592)">
    <path id="Path_120" data-name="Path 120" class="cls-2" d="M64.369,60.623H24.817A5.817,5.817,0,0,1,19,54.807v-3.49A5.817,5.817,0,0,1,24.817,45.5H64.369a5.817,5.817,0,0,1,5.817,5.817v3.49A5.817,5.817,0,0,1,64.369,60.623ZM63.206,52.48a1.163,1.163,0,0,0-1.163-1.163h-3.49a1.163,1.163,0,1,0,0,2.327h3.49A1.163,1.163,0,0,0,63.206,52.48Zm-8.143,0A1.163,1.163,0,0,0,53.9,51.317H50.41a1.163,1.163,0,1,0,0,2.327H53.9A1.163,1.163,0,0,0,55.063,52.48Z" transform="translate(-19 -10.6)"/>
    <path id="Path_121" data-name="Path 121" class="cls-2" d="M64.369,45.623H24.817A5.817,5.817,0,0,1,19,39.807v-3.49A5.817,5.817,0,0,1,24.817,30.5H64.369a5.817,5.817,0,0,1,5.817,5.817v3.49a5.817,5.817,0,0,1-5.817,5.817ZM63.206,37.48a1.163,1.163,0,0,0-1.163-1.163h-3.49a1.163,1.163,0,1,0,0,2.327h3.49A1.163,1.163,0,0,0,63.206,37.48Zm-8.143,0A1.163,1.163,0,0,0,53.9,36.317H50.41a1.163,1.163,0,1,0,0,2.327H53.9A1.163,1.163,0,0,0,55.063,37.48Z" transform="translate(-19 -13.05)"/>
    <path id="Path_122" data-name="Path 122" class="cls-2" d="M64.369,30.623H24.817A5.817,5.817,0,0,1,19,24.807v-3.49A5.817,5.817,0,0,1,24.817,15.5H64.369a5.817,5.817,0,0,1,5.817,5.817v3.49A5.817,5.817,0,0,1,64.369,30.623ZM63.206,22.48a1.163,1.163,0,0,0-1.163-1.163h-3.49a1.163,1.163,0,1,0,0,2.327h3.49A1.163,1.163,0,0,0,63.206,22.48Zm-8.143,0A1.163,1.163,0,0,0,53.9,21.317H50.41a1.163,1.163,0,1,0,0,2.327H53.9A1.163,1.163,0,0,0,55.063,22.48Z" transform="translate(-19 -15.5)"/>
  </g>
  <path id="Path_123" data-name="Path 123" class="cls-3" d="M48.761,23.27v-.907a16.868,16.868,0,0,0-33.48-2.885,15.13,15.13,0,1,0,.907,30.246H45.852A13.367,13.367,0,0,0,48.761,23.27ZM32.474,20.617a1.163,1.163,0,1,1,1.163-1.163A1.163,1.163,0,0,1,32.474,20.617ZM45.852,47.374H41.781V38.649L44.6,36.322a3.453,3.453,0,1,0-1.652-2.908,3.409,3.409,0,0,0,.209,1.163L39.9,37.183a1.163,1.163,0,0,0-.442.907V47.4H33.638V22.735a3.49,3.49,0,1,0-2.327,0V47.374h-6.98v-6.98a1.163,1.163,0,0,0-.43-.907l-3.269-2.606a3.408,3.408,0,0,0,.209-1.163,3.572,3.572,0,1,0-1.652,2.932L22,40.975v6.4H16.188a12.8,12.8,0,1,1,0-25.593h.14a1.163,1.163,0,0,0,1.163-1.035,14.541,14.541,0,0,1,28.943,1.617,13.67,13.67,0,0,1-.116,1.733,1.163,1.163,0,0,0,1,1.28,11.052,11.052,0,0,1-1.466,22Zm-.582-13.96a1.163,1.163,0,1,1,1.163,1.163A1.163,1.163,0,0,1,45.271,33.414ZM17.351,36.9a1.163,1.163,0,1,1,1.163-1.163A1.163,1.163,0,0,1,17.351,36.9Z" transform="translate(-0.604 -5.535)"/>
</svg>
