<svg id="_004-video-call" data-name="004-video-call" xmlns="http://www.w3.org/2000/svg" xmlns:xlink="http://www.w3.org/1999/xlink" width="64" height="64" viewBox="0 0 64 64">
  <defs>
    <style>
      .cls-1 {
        opacity: 0.7;
        fill: url(#linear-gradient);
      }

      .cls-2 {
        fill: #fff;
      }
    </style>
    <linearGradient id="linear-gradient" x1="0.5" x2="0.5" y2="1" gradientUnits="objectBoundingBox">
      <stop offset="0" stop-color="#374757"/>
      <stop offset="1" stop-color="#7594af"/>
    </linearGradient>
  </defs>
  <path id="Path_94" data-name="Path 94" class="cls-1" d="M20.831,43.749a10,10,0,1,0-9.662,0A16.026,16.026,0,0,0,0,59v4a1,1,0,0,0,1,1H31a1,1,0,0,0,1-1V59A16.026,16.026,0,0,0,20.831,43.749Z"/>
  <g id="Group_193" data-name="Group 193">
    <path id="Path_95" data-name="Path 95" class="cls-2" d="M59.474,4.921,51,9.927V5a5.006,5.006,0,0,0-5-5H17a5.006,5.006,0,0,0-5,5V35a5.006,5.006,0,0,0,5,5H46a5.006,5.006,0,0,0,5-5V30.073l8.475,5.006A3,3,0,0,0,64,32.495V7.5a3,3,0,0,0-4.526-2.584ZM49,35a3,3,0,0,1-3,3H17a3,3,0,0,1-3-3V5a3,3,0,0,1,3-3H46a3,3,0,0,1,3,3Zm13-2.505a1,1,0,0,1-1.509.861L51,27.75V12.25l9.49-5.606A1,1,0,0,1,62,7.505Z"/>
    <path id="Path_96" data-name="Path 96" class="cls-2" d="M40.468,19.116l-17-9A1,1,0,0,0,22,11V29a1,1,0,0,0,1.468.884l17-9a1,1,0,0,0,0-1.768ZM28,25.221l-4,2.118V12.661l4,2.118Zm2-1.059V15.838L37.862,20Z"/>
  </g>
</svg>
